<?xml version="1.0" encoding="UTF-8" standalone="no"?>
<!-- Created with Inkscape (http://www.inkscape.org/) -->

<svg
   width="512"
   height="512"
   viewBox="0 0 135.46666 135.46667"
   version="1.1"
   id="svg1"
   inkscape:version="1.4 (e7c3feb100, 2024-10-09)"
   sodipodi:docname="favicon.svg"
   xmlns:inkscape="http://www.inkscape.org/namespaces/inkscape"
   xmlns:sodipodi="http://sodipodi.sourceforge.net/DTD/sodipodi-0.dtd"
   xmlns="http://www.w3.org/2000/svg"
   xmlns:svg="http://www.w3.org/2000/svg">
  <sodipodi:namedview
     id="namedview1"
     pagecolor="#ffffff"
     bordercolor="#000000"
     borderopacity="0.25"
     inkscape:showpageshadow="2"
     inkscape:pageopacity="0.0"
     inkscape:pagecheckerboard="0"
     inkscape:deskcolor="#d1d1d1"
     inkscape:document-units="mm"
     inkscape:zoom="0.78216891"
     inkscape:cx="327.93428"
     inkscape:cy="497.33503"
     inkscape:window-width="1920"
     inkscape:window-height="1131"
     inkscape:window-x="0"
     inkscape:window-y="0"
     inkscape:window-maximized="1"
     inkscape:current-layer="layer1" />
  <defs
     id="defs1" />
  <g
     inkscape:label="Layer 1"
     inkscape:groupmode="layer"
     id="layer1">
    <g
       id="g2"
       style="fill:#ffffff;fill-opacity:1"
       transform="matrix(0.26458333,0,0,0.26458333,-350.65118,-16.377705)">
		<path
   d="m 1618.13,399.95 v -9.29 c -10.55,6.47 -22.95,10.2 -36.21,10.2 -12.43,0 -24.09,-3.29 -34.19,-9.03 V 556.1 h 3.56 c 0.95,0 1.82,0.03 2.63,0.05 0.78,0.02 1.51,0.04 2.22,0.04 1.08,0 1.98,-0.05 2.83,-0.16 33.26,-4.2 58.65,-32.41 59.06,-65.62 0.26,-20.99 0.2,-42.32 0.15,-62.95 -0.03,-9.16 -0.05,-18.34 -0.05,-27.51 z"
   id="path1"
   style="fill:#ffffff;fill-opacity:1" />

		<path
   d="m 1790.04,93.19 -0.25,-3.29 -40.7,0.03 c -18.83,0.02 -37.65,0.04 -56.48,0.04 l -305.09,-0.06 c -5.83,0 -9.34,0 -11.58,2.55 -2.24,2.55 -1.79,5.93 -0.99,12.06 4.08,30.93 33.43,56.32 65.43,56.59 11.92,0.1 24.79,0.15 40.5,0.15 9.61,0 19.21,-0.02 28.82,-0.03 9.6,-0.02 19.21,-0.03 28.81,-0.03 h 8.48 v 110.14 c 10.27,-6 22.2,-9.45 34.93,-9.45 13.26,0 25.66,3.74 36.21,10.2 V 161.18 h 6.53 c 8.35,0 16.7,0.01 25.04,0.02 8.35,0.01 16.7,0.02 25.05,0.02 18.12,0 32.08,-0.05 45.25,-0.15 7.08,-0.06 14.17,-0.91 21.06,-2.54 29.24,-6.92 51.21,-36.24 48.98,-65.34 z"
   id="path2"
   style="fill:#ffffff;fill-opacity:1" />

	</g>
    <path
       class="st3"
       d="m 52.258961,80.43069 c -0.822854,0 -1.645709,0.0026 -2.468563,0.0026 -1.854729,-0.0026 -2.137833,0.989542 -2.132541,2.487084 0.02381,6.236229 0.03704,12.469812 -0.0026,18.706046 -0.05027,8.16242 -5.81025,14.95956 -13.816542,16.32481 -0.748771,0.127 -1.539875,0.0159 -2.598208,0.0159 0,-1.13771 0,-2.13519 0,-3.13268 -0.0026,-10.36638 0.0053,-20.735421 -0.01058,-31.101795 -0.0053,-3.066521 -0.0344,-3.066521 -2.989792,-3.47398 -6.895042,-0.949854 -12.893146,-6.871229 -13.951479,-13.686895 -0.264583,-1.703917 0.05556,-2.561167 2.042583,-2.502959 3.839104,0.113771 7.6835,0.03175 11.527896,0.02911 3.39725,-0.0026 3.402542,-0.0053 3.399896,-3.513667 -0.0026,-9.353021 -0.01058,-18.706041 -0.01323,-28.059062 0,-2.812521 0.0053,-2.815167 2.899833,-2.815167 3.698875,0 7.39775,0.09525 11.091333,-0.0291 1.944688,-0.06615 2.481792,0.658813 2.465917,2.518833 -0.07937,9.569979 -0.05821,19.139958 -0.05292,28.709938 0.0026,3.198812 0.03175,3.22527 3.325813,3.230562 0.0926,0 0.182562,0 0.275166,0 -0.949854,2.196042 -1.476375,4.616979 -1.476375,7.156979 0.0026,3.328458 0.910167,6.450542 2.484438,9.133417 z M 107.95111,64.095315 c -3.09827,0.0053 -3.16442,-0.03704 -3.16707,-3.14325 -0.005,-9.498542 -0.0688,-18.997083 0.0476,-28.492979 0.0265,-2.248958 -0.73554,-2.910417 -2.86808,-2.828396 -3.548067,0.137584 -7.104067,0.03704 -10.654776,0.08202 -2.852208,0.0344 -2.862791,0.0635 -2.865437,2.926292 -0.01058,9.569979 -0.05556,19.139958 0.02381,28.709937 0.01852,2.180166 -0.714375,2.860146 -2.902479,2.841625 -0.330729,-0.0026 -0.664104,-0.0026 -0.994833,-0.0053 0.933979,2.182813 1.452562,4.585229 1.452562,7.104063 0,3.307291 -0.894291,6.408208 -2.447395,9.077854 0.267229,0 0.534458,0 0.801687,0 4.106333,0.01323 4.119563,0.156104 4.122208,4.339166 0.0079,10.366375 0.02117,20.735423 -0.02117,31.101803 -0.0079,1.73037 0.386291,2.55852 2.362729,2.20662 8.165042,-1.44462 13.882684,-8.14122 13.909144,-16.44917 0.0185,-6.162149 0.0423,-12.324294 0.005,-18.48644 -0.0106,-1.862667 0.66675,-2.600854 2.62467,-2.8575 2.10343,-0.272521 4.28625,-0.926042 6.13568,-1.952625 5.33665,-2.963333 8.00629,-7.691438 8.49842,-14.184313 -4.95829,0.01058 -9.51177,0.0026 -14.0626,0.01058 z"
       id="path46"
       style="fill:#ffa719;fill-opacity:1;stroke-width:0.264583" />
    <g
       inkscape:label="Layer 1"
       id="layer1-3"
       transform="matrix(1.2735996,0,0,1.2735996,17.073505,-43.308907)">
      <path
         style="fill:#ffa719;fill-opacity:1;stroke:none;stroke-width:0.0820332;stroke-opacity:1"
         d="m 30.581666,91.521511 0.132802,2.329443 c 1.265121,4.201436 18.056076,3.878559 18.611647,0.05306 l 0.127547,-2.295294 c -1.507147,3.263832 -16.670778,3.51972 -18.872036,-0.08719 z"
         id="path1-2-1"
         sodipodi:nodetypes="ccccc" />
      <path
         style="fill:#ffa719;fill-opacity:1;stroke:none;stroke-width:0.0656156;stroke-opacity:1"
         d="m 32.443107,89.043378 0.159615,2.249144 c 0.949629,2.856038 14.563439,2.6988 14.83195,-0.05438 l 0.103599,-2.124997 c -1.309952,2.25347 -13.354034,2.351433 -15.095177,-0.06973 z"
         id="path1-6-9"
         sodipodi:nodetypes="cccccc" />
      <path
         style="fill:#ffa719;fill-opacity:1;stroke:none;stroke-width:0.0498671;stroke-opacity:1"
         d="m 34.476262,86.714279 0.08432,2.23062 c 1.00855,1.786508 10.653933,1.736018 10.931997,-0.06788 l 0.06417,-2.007876 c -1.154103,1.421781 -9.507062,1.51195 -11.080419,0.0093 z"
         id="path1-6-2-4"
         sodipodi:nodetypes="cccccc" />
      <path
         style="fill:#ffa719;fill-opacity:1;stroke:none;stroke-width:0.0365843;stroke-opacity:1"
         d="m 35.989312,86.661818 c 0.873872,1.100266 7.30659,1.053918 8.068204,0.02633 l 0.05187,-2.267892 c -0.891775,0.724082 -7.05709,0.850967 -8.162232,-0.0471 -0.02112,0.617968 0.01879,1.670828 0.04214,2.288678 z"
         id="path2-0-7"
         sodipodi:nodetypes="cccccc" />
      <path
         style="fill:#ffa719;fill-opacity:1;stroke:none;stroke-width:0.0159247;stroke-opacity:1"
         d="m 38.590801,84.310252 c -0.02514,0.289429 2.4813,0.393293 2.869183,0.0647 l 0.0093,-2.399409 c -0.447841,0.216076 -2.278227,0.261393 -2.879161,0.02831 -0.0093,0.269 -0.0094,2.037447 6.21e-4,2.306394 z"
         id="path3-2-8"
         sodipodi:nodetypes="cccccc" />
    </g>
  </g>
</svg>
